# This file uses centimeters as units for non-parametric coordinates.

mtllib bumper.mtl
g default
v -0.711389 -0.210738 0.203610
v 0.674496 -0.210738 0.203610
v -0.711389 0.209427 0.203610
v 0.674496 0.209427 0.203610
v -0.711389 0.209427 -0.212758
v 0.674496 0.209427 -0.212758
v -0.711389 -0.210738 -0.212758
v 0.674496 -0.210738 -0.212758
v -0.018446 -0.266004 0.258376
v -0.018446 0.264693 0.258376
v -0.018446 0.264693 -0.267524
v -0.018446 -0.266004 -0.267524
v -0.893680 -0.000655 0.258376
v 0.856787 -0.000655 0.258376
v -0.893680 0.264693 -0.004574
v 0.856787 0.264693 -0.004574
v -0.893680 -0.000655 -0.267524
v 0.856787 -0.000655 -0.267524
v -0.893680 -0.266004 -0.004574
v 0.856787 -0.266004 -0.004574
v -0.018446 -0.000655 0.354543
v -0.018446 0.361737 -0.004574
v -0.018446 -0.000655 -0.363691
v -0.018446 -0.363048 -0.004574
v 1.176879 -0.000655 -0.004574
v -1.213772 -0.000655 -0.004574
v -0.429487 -0.247741 0.240278
v 0.392595 -0.247741 0.240278
v -0.429487 0.246430 0.240278
v 0.392595 0.246430 0.240278
v -0.429487 0.246430 -0.249427
v 0.392595 0.246430 -0.249427
v -0.429487 -0.247741 -0.249427
v 0.392595 -0.247741 -0.249427
v -0.833441 -0.125272 0.240278
v -0.833441 0.123962 0.240278
v 0.796548 -0.125272 0.240278
v 0.796548 0.123962 0.240278
v -0.833441 0.246430 0.118917
v -0.833441 0.246430 -0.128065
v 0.796548 0.246430 0.118917
v 0.796548 0.246430 -0.128065
v -0.833441 0.123962 -0.249427
v -0.833441 -0.125272 -0.249427
v 0.796548 0.123962 -0.249427
v 0.796548 -0.125272 -0.249427
v -0.833441 -0.247741 -0.128065
v -0.833441 -0.247741 0.118917
v 0.796548 -0.247741 -0.128065
v 0.796548 -0.247741 0.118917
v -0.018446 -0.145326 0.330413
v 0.458739 -0.000655 0.330413
v -0.018446 0.144015 0.330413
v -0.495632 -0.000655 0.330413
v -0.018446 0.337387 0.138789
v 0.458739 0.337387 -0.004574
v -0.018446 0.337387 -0.147937
v -0.495632 0.337387 -0.004574
v -0.018446 0.144015 -0.339561
v 0.458739 -0.000655 -0.339561
v -0.018446 -0.145326 -0.339561
v -0.495632 -0.000655 -0.339561
v -0.018446 -0.338697 -0.147937
v 0.458739 -0.338697 -0.004574
v -0.018446 -0.338697 0.138789
v -0.495632 -0.338697 -0.004574
v 1.096561 -0.145326 -0.004574
v 1.096561 -0.000655 -0.147937
v 1.096561 0.144015 -0.004574
v 1.096561 -0.000655 0.138789
v -1.133454 -0.145326 -0.004574
v -1.133454 -0.000655 0.138789
v -1.133454 0.144015 -0.004574
v -1.133454 -0.000655 -0.147937
v 0.425667 -0.135299 0.307702
v 0.425667 0.133989 0.307702
v -0.462559 0.133989 0.307702
v -0.462559 -0.135299 0.307702
v 0.425667 0.314469 0.128853
v 0.425667 0.314469 -0.138001
v -0.462559 0.314469 -0.138001
v -0.462559 0.314469 0.128853
v 0.425667 0.133989 -0.316850
v 0.425667 -0.135299 -0.316850
v -0.462559 -0.135299 -0.316850
v -0.462559 0.133989 -0.316850
v 0.425667 -0.315779 -0.138001
v 0.425667 -0.315779 0.128853
v -0.462559 -0.315779 0.128853
v -0.462559 -0.315779 -0.138001
v 1.020967 -0.135299 -0.138001
v 1.020967 0.133989 -0.138001
v 1.020967 0.133989 0.128853
v 1.020967 -0.135299 0.128853
v -1.057860 -0.135299 0.128853
v -1.057860 0.133989 0.128853
v -1.057860 0.133989 -0.138001
v -1.057860 -0.135299 -0.138001
vt 0.375000 0.000000
vt 0.625000 0.000000
vt 0.375000 0.250000
vt 0.625000 0.250000
vt 0.375000 0.500000
vt 0.625000 0.500000
vt 0.375000 0.750000
vt 0.625000 0.750000
vt 0.375000 1.000000
vt 0.625000 1.000000
vt 0.875000 0.000000
vt 0.875000 0.250000
vt 0.125000 0.000000
vt 0.125000 0.250000
vt 0.500000 0.125000
vt 0.500000 0.375000
vt 0.500000 0.625000
vt 0.500000 0.875000
vt 0.750000 0.125000
vt 0.250000 0.125000
vt 0.500000 0.000000
vt 0.625000 0.125000
vt 0.500000 0.250000
vt 0.375000 0.125000
vt 0.625000 0.375000
vt 0.500000 0.500000
vt 0.375000 0.375000
vt 0.625000 0.625000
vt 0.500000 0.750000
vt 0.375000 0.625000
vt 0.625000 0.875000
vt 0.500000 1.000000
vt 0.375000 0.875000
vt 0.750000 0.000000
vt 0.875000 0.125000
vt 0.750000 0.250000
vt 0.250000 0.000000
vt 0.250000 0.250000
vt 0.125000 0.125000
vt 0.562500 0.062500
vt 0.562500 0.187500
vt 0.437500 0.187500
vt 0.437500 0.062500
vt 0.562500 0.312500
vt 0.562500 0.437500
vt 0.437500 0.437500
vt 0.437500 0.312500
vt 0.562500 0.562500
vt 0.562500 0.687500
vt 0.437500 0.687500
vt 0.437500 0.562500
vt 0.562500 0.812500
vt 0.562500 0.937500
vt 0.437500 0.937500
vt 0.437500 0.812500
vt 0.812500 0.062500
vt 0.812500 0.187500
vt 0.687500 0.187500
vt 0.687500 0.062500
vt 0.312500 0.062500
vt 0.312500 0.187500
vt 0.187500 0.187500
vt 0.187500 0.062500
vt 0.562500 0.000000
vt 0.625000 0.062500
vt 0.562500 0.125000
vt 0.500000 0.062500
vt 0.625000 0.187500
vt 0.562500 0.250000
vt 0.500000 0.187500
vt 0.437500 0.250000
vt 0.375000 0.187500
vt 0.437500 0.125000
vt 0.375000 0.062500
vt 0.437500 0.000000
vt 0.625000 0.312500
vt 0.562500 0.375000
vt 0.500000 0.312500
vt 0.625000 0.437500
vt 0.562500 0.500000
vt 0.500000 0.437500
vt 0.437500 0.500000
vt 0.375000 0.437500
vt 0.437500 0.375000
vt 0.375000 0.312500
vt 0.625000 0.562500
vt 0.562500 0.625000
vt 0.500000 0.562500
vt 0.625000 0.687500
vt 0.562500 0.750000
vt 0.500000 0.687500
vt 0.437500 0.750000
vt 0.375000 0.687500
vt 0.437500 0.625000
vt 0.375000 0.562500
vt 0.625000 0.812500
vt 0.562500 0.875000
vt 0.500000 0.812500
vt 0.625000 0.937500
vt 0.562500 1.000000
vt 0.500000 0.937500
vt 0.437500 1.000000
vt 0.375000 0.937500
vt 0.437500 0.875000
vt 0.375000 0.812500
vt 0.812500 0.000000
vt 0.875000 0.062500
vt 0.812500 0.125000
vt 0.750000 0.062500
vt 0.875000 0.187500
vt 0.812500 0.250000
vt 0.750000 0.187500
vt 0.687500 0.250000
vt 0.687500 0.125000
vt 0.687500 0.000000
vt 0.312500 0.000000
vt 0.312500 0.125000
vt 0.250000 0.062500
vt 0.312500 0.250000
vt 0.250000 0.187500
vt 0.187500 0.250000
vt 0.125000 0.187500
vt 0.187500 0.125000
vt 0.125000 0.062500
vt 0.187500 0.000000
vn 0.092836 -0.532256 0.841478
vn 0.169669 -0.559642 0.811180
vn 0.177552 -0.289203 0.940658
vn 0.104831 -0.345211 0.932652
vn 0.181234 0.000000 0.983440
vn 0.118366 0.000000 0.992970
vn 0.000000 0.000000 1.000000
vn 0.000000 -0.341607 0.939843
vn 0.000000 -0.519422 0.854518
vn 0.177552 0.289203 0.940658
vn 0.169669 0.559642 0.811180
vn 0.092836 0.532256 0.841478
vn 0.104831 0.345211 0.932652
vn -0.000000 0.519422 0.854518
vn -0.000000 0.341607 0.939843
vn -0.092836 0.532256 0.841478
vn -0.169669 0.559642 0.811180
vn -0.177552 0.289203 0.940658
vn -0.104831 0.345211 0.932652
vn -0.181234 -0.000000 0.983440
vn -0.118366 -0.000000 0.992970
vn -0.177552 -0.289203 0.940658
vn -0.169669 -0.559642 0.811180
vn -0.092836 -0.532256 0.841478
vn -0.104831 -0.345211 0.932652
vn 0.093228 0.837024 0.539165
vn 0.170189 0.806313 0.566477
vn 0.178844 0.938975 0.293839
vn 0.105509 0.930544 0.350652
vn 0.182832 0.983144 -0.000000
vn 0.119492 0.992835 0.000000
vn 0.000000 1.000000 0.000000
vn 0.000000 0.937849 0.347043
vn 0.000000 0.850286 0.526320
vn 0.178844 0.938975 -0.293839
vn 0.170189 0.806313 -0.566477
vn 0.093228 0.837024 -0.539165
vn 0.105509 0.930544 -0.350652
vn -0.000000 0.850286 -0.526320
vn 0.000000 0.937849 -0.347043
vn -0.093228 0.837024 -0.539165
vn -0.170189 0.806313 -0.566477
vn -0.178844 0.938975 -0.293839
vn -0.105509 0.930544 -0.350652
vn -0.182832 0.983144 -0.000000
vn -0.119492 0.992835 -0.000000
vn -0.178844 0.938975 0.293839
vn -0.170189 0.806313 0.566477
vn -0.093228 0.837024 0.539165
vn -0.105509 0.930544 0.350652
vn 0.092836 0.532256 -0.841478
vn 0.169669 0.559642 -0.811180
vn 0.177552 0.289203 -0.940658
vn 0.104831 0.345211 -0.932652
vn 0.181234 -0.000000 -0.983440
vn 0.118366 -0.000000 -0.992970
vn 0.000000 0.000000 -1.000000
vn 0.000000 0.341607 -0.939843
vn 0.000000 0.519422 -0.854518
vn 0.177552 -0.289203 -0.940658
vn 0.169669 -0.559642 -0.811180
vn 0.092836 -0.532256 -0.841478
vn 0.104831 -0.345211 -0.932652
vn -0.000000 -0.519422 -0.854518
vn -0.000000 -0.341607 -0.939843
vn -0.092836 -0.532256 -0.841478
vn -0.169669 -0.559642 -0.811180
vn -0.177552 -0.289203 -0.940658
vn -0.104831 -0.345211 -0.932652
vn -0.181234 0.000000 -0.983440
vn -0.118366 0.000000 -0.992970
vn -0.177552 0.289203 -0.940658
vn -0.169669 0.559642 -0.811180
vn -0.092836 0.532256 -0.841478
vn -0.104831 0.345211 -0.932652
vn 0.093228 -0.837024 -0.539165
vn 0.170189 -0.806313 -0.566477
vn 0.178844 -0.938975 -0.293839
vn 0.105509 -0.930544 -0.350652
vn 0.182832 -0.983144 0.000000
vn 0.119492 -0.992835 -0.000000
vn 0.000000 -1.000000 0.000000
vn 0.000000 -0.937849 -0.347043
vn 0.000000 -0.850286 -0.526320
vn 0.178844 -0.938975 0.293839
vn 0.170189 -0.806313 0.566477
vn 0.093228 -0.837024 0.539165
vn 0.105509 -0.930544 0.350652
vn -0.000000 -0.850286 0.526320
vn 0.000000 -0.937849 0.347043
vn -0.093228 -0.837024 0.539165
vn -0.170189 -0.806313 0.566477
vn -0.178844 -0.938975 0.293839
vn -0.105509 -0.930544 0.350652
vn -0.182832 -0.983144 0.000000
vn -0.119492 -0.992835 0.000000
vn -0.178844 -0.938975 -0.293839
vn -0.170189 -0.806313 -0.566477
vn -0.093228 -0.837024 -0.539165
vn -0.105509 -0.930544 -0.350652
vn 0.351263 -0.760025 -0.546787
vn 0.293064 -0.672984 -0.679122
vn 0.350360 -0.540422 -0.764978
vn 0.504383 -0.607907 -0.613226
vn 0.439862 -0.000000 -0.898066
vn 0.681462 -0.000000 -0.731854
vn 1.000000 0.000000 0.000000
vn 0.684863 -0.728672 -0.000000
vn 0.443089 -0.896478 -0.000000
vn 0.350360 0.540422 -0.764979
vn 0.293064 0.672984 -0.679122
vn 0.351263 0.760025 -0.546787
vn 0.504383 0.607907 -0.613227
vn 0.443089 0.896478 0.000000
vn 0.684863 0.728672 0.000000
vn 0.351263 0.760025 0.546787
vn 0.293064 0.672984 0.679122
vn 0.350360 0.540422 0.764978
vn 0.504383 0.607907 0.613226
vn 0.439862 0.000000 0.898066
vn 0.681462 0.000000 0.731854
vn 0.350360 -0.540422 0.764979
vn 0.293064 -0.672984 0.679122
vn 0.351263 -0.760025 0.546787
vn 0.504383 -0.607907 0.613227
vn -0.351263 -0.760025 0.546787
vn -0.293064 -0.672984 0.679122
vn -0.350360 -0.540422 0.764978
vn -0.504383 -0.607907 0.613227
vn -0.439862 0.000000 0.898066
vn -0.681462 0.000000 0.731854
vn -1.000000 0.000000 0.000000
vn -0.684862 -0.728672 0.000000
vn -0.443089 -0.896478 0.000000
vn -0.350360 0.540422 0.764978
vn -0.293064 0.672984 0.679122
vn -0.351263 0.760025 0.546787
vn -0.504383 0.607907 0.613227
vn -0.443089 0.896478 -0.000000
vn -0.684863 0.728672 0.000000
vn -0.351263 0.760025 -0.546787
vn -0.293064 0.672984 -0.679122
vn -0.350360 0.540422 -0.764978
vn -0.504383 0.607907 -0.613227
vn -0.439862 -0.000000 -0.898066
vn -0.681462 -0.000000 -0.731854
vn -0.350360 -0.540422 -0.764978
vn -0.293064 -0.672984 -0.679122
vn -0.351263 -0.760025 -0.546787
vn -0.504383 -0.607907 -0.613227
s 1
g pCube2
usemtl initialShadingGroup
f 28/64/1 2/2/2 37/65/3 75/40/4
f 37/65/3 14/22/5 52/66/6 75/40/4
f 52/66/6 21/15/7 51/67/8 75/40/4
f 51/67/8 9/21/9 28/64/1 75/40/4
f 38/68/10 4/4/11 30/69/12 76/41/13
f 30/69/12 10/23/14 53/70/15 76/41/13
f 53/70/15 21/15/7 52/66/6 76/41/13
f 52/66/6 14/22/5 38/68/10 76/41/13
f 29/71/16 3/3/17 36/72/18 77/42/19
f 36/72/18 13/24/20 54/73/21 77/42/19
f 54/73/21 21/15/7 53/70/15 77/42/19
f 53/70/15 10/23/14 29/71/16 77/42/19
f 35/74/22 1/1/23 27/75/24 78/43/25
f 27/75/24 9/21/9 51/67/8 78/43/25
f 51/67/8 21/15/7 54/73/21 78/43/25
f 54/73/21 13/24/20 35/74/22 78/43/25
s 4
f 30/69/26 4/4/27 41/76/28 79/44/29
f 41/76/28 16/25/30 56/77/31 79/44/29
f 56/77/31 22/16/32 55/78/33 79/44/29
f 55/78/33 10/23/34 30/69/26 79/44/29
f 42/79/35 6/6/36 32/80/37 80/45/38
f 32/80/37 11/26/39 57/81/40 80/45/38
f 57/81/40 22/16/32 56/77/31 80/45/38
f 56/77/31 16/25/30 42/79/35 80/45/38
f 31/82/41 5/5/42 40/83/43 81/46/44
f 40/83/43 15/27/45 58/84/46 81/46/44
f 58/84/46 22/16/32 57/81/40 81/46/44
f 57/81/40 11/26/39 31/82/41 81/46/44
f 39/85/47 3/3/48 29/71/49 82/47/50
f 29/71/49 10/23/34 55/78/33 82/47/50
f 55/78/33 22/16/32 58/84/46 82/47/50
f 58/84/46 15/27/45 39/85/47 82/47/50
s 7
f 32/80/51 6/6/52 45/86/53 83/48/54
f 45/86/53 18/28/55 60/87/56 83/48/54
f 60/87/56 23/17/57 59/88/58 83/48/54
f 59/88/58 11/26/59 32/80/51 83/48/54
f 46/89/60 8/8/61 34/90/62 84/49/63
f 34/90/62 12/29/64 61/91/65 84/49/63
f 61/91/65 23/17/57 60/87/56 84/49/63
f 60/87/56 18/28/55 46/89/60 84/49/63
f 33/92/66 7/7/67 44/93/68 85/50/69
f 44/93/68 17/30/70 62/94/71 85/50/69
f 62/94/71 23/17/57 61/91/65 85/50/69
f 61/91/65 12/29/64 33/92/66 85/50/69
f 43/95/72 5/5/73 31/82/74 86/51/75
f 31/82/74 11/26/59 59/88/58 86/51/75
f 59/88/58 23/17/57 62/94/71 86/51/75
f 62/94/71 17/30/70 43/95/72 86/51/75
s 10
f 34/90/76 8/8/77 49/96/78 87/52/79
f 49/96/78 20/31/80 64/97/81 87/52/79
f 64/97/81 24/18/82 63/98/83 87/52/79
f 63/98/83 12/29/84 34/90/76 87/52/79
f 50/99/85 2/10/86 28/100/87 88/53/88
f 28/100/87 9/32/89 65/101/90 88/53/88
f 65/101/90 24/18/82 64/97/81 88/53/88
f 64/97/81 20/31/80 50/99/85 88/53/88
f 27/102/91 1/9/92 48/103/93 89/54/94
f 48/103/93 19/33/95 66/104/96 89/54/94
f 66/104/96 24/18/82 65/101/90 89/54/94
f 65/101/90 9/32/89 27/102/91 89/54/94
f 47/105/97 7/7/98 33/92/99 90/55/100
f 33/92/99 12/29/84 63/98/83 90/55/100
f 63/98/83 24/18/82 66/104/96 90/55/100
f 66/104/96 19/33/95 47/105/97 90/55/100
s 13
f 49/106/101 8/11/102 46/107/103 91/56/104
f 46/107/103 18/35/105 68/108/106 91/56/104
f 68/108/106 25/19/107 67/109/108 91/56/104
f 67/109/108 20/34/109 49/106/101 91/56/104
f 45/110/110 6/12/111 42/111/112 92/57/113
f 42/111/112 16/36/114 69/112/115 92/57/113
f 69/112/115 25/19/107 68/108/106 92/57/113
f 68/108/106 18/35/105 45/110/110 92/57/113
f 41/113/116 4/4/117 38/68/118 93/58/119
f 38/68/118 14/22/120 70/114/121 93/58/119
f 70/114/121 25/19/107 69/112/115 93/58/119
f 69/112/115 16/36/114 41/113/116 93/58/119
f 37/65/122 2/2/123 50/115/124 94/59/125
f 50/115/124 20/34/109 67/109/108 94/59/125
f 67/109/108 25/19/107 70/114/121 94/59/125
f 70/114/121 14/22/120 37/65/122 94/59/125
s 16
f 48/116/126 1/1/127 35/74/128 95/60/129
f 35/74/128 13/24/130 72/117/131 95/60/129
f 72/117/131 26/20/132 71/118/133 95/60/129
f 71/118/133 19/37/134 48/116/126 95/60/129
f 36/72/135 3/3/136 39/119/137 96/61/138
f 39/119/137 15/38/139 73/120/140 96/61/138
f 73/120/140 26/20/132 72/117/131 96/61/138
f 72/117/131 13/24/130 36/72/135 96/61/138
f 40/121/141 5/14/142 43/122/143 97/62/144
f 43/122/143 17/39/145 74/123/146 97/62/144
f 74/123/146 26/20/132 73/120/140 97/62/144
f 73/120/140 15/38/139 40/121/141 97/62/144
f 44/124/147 7/13/148 47/125/149 98/63/150
f 47/125/149 19/37/134 71/118/133 98/63/150
f 71/118/133 26/20/132 74/123/146 98/63/150
f 74/123/146 17/39/145 44/124/147 98/63/150
